<?xml version="1.0" encoding="UTF-8" ?>
<!DOCTYPE svg PUBLIC "-//W3C//DTD SVG 1.1//EN" "http://www.w3.org/Graphics/SVG/1.1/DTD/svg11.dtd">
<svg width="792pt" height="269pt" viewBox="0 0 792 269" version="1.1" xmlns="http://www.w3.org/2000/svg">
<path fill="#ffffff" d=" M 0.00 0.00 L 792.00 0.00 L 792.00 269.00 L 0.00 269.00 L 0.00 0.00 Z" />
<path fill="#219bda" d=" M 346.05 93.74 C 349.72 93.30 352.25 96.28 354.77 98.41 C 354.80 99.71 354.81 101.01 354.81 102.31 C 354.13 103.72 353.37 105.08 352.58 106.42 C 349.45 111.55 347.24 117.17 344.13 122.30 C 340.69 122.23 337.25 122.19 333.82 122.19 C 327.75 121.44 321.64 121.16 315.56 120.52 C 310.72 119.62 305.78 119.74 300.89 119.43 C 284.49 117.82 268.02 116.90 251.62 115.26 C 247.73 111.73 244.82 107.17 241.18 103.35 C 264.82 107.78 288.53 111.85 312.18 116.28 C 313.67 116.47 315.20 116.88 316.73 116.63 C 326.49 109.00 336.13 101.16 346.05 93.74 Z" />
<path fill="#fd3657" d=" M 354.81 102.31 L 355.29 101.33 C 357.99 104.17 362.07 106.44 362.24 110.81 C 361.63 111.33 360.39 112.36 359.77 112.87 C 359.68 112.02 359.51 110.31 359.42 109.45 L 358.66 109.05 C 356.67 108.08 354.60 107.31 352.58 106.42 C 353.37 105.08 354.13 103.72 354.81 102.31 Z" />
<path fill="#db9aa8" d=" M 358.66 109.05 L 359.42 109.45 C 359.51 110.31 359.68 112.02 359.77 112.87 C 360.39 112.36 361.63 111.33 362.24 110.81 C 361.22 111.87 360.19 112.94 359.17 114.00 C 358.99 112.35 358.82 110.70 358.66 109.05 Z" />
<path fill="#136187" d=" M 476.83 114.76 C 479.33 112.31 481.91 109.34 485.66 109.07 C 487.12 121.10 477.41 130.03 469.90 137.96 C 467.08 140.09 467.50 145.34 470.99 146.51 C 474.91 146.43 478.06 143.74 481.04 141.50 C 483.26 132.45 492.32 124.61 501.91 125.97 C 505.21 126.39 505.46 130.45 503.79 132.66 C 500.16 137.99 493.70 140.14 487.94 142.33 C 488.14 144.29 488.63 146.81 491.16 146.79 C 497.30 147.22 501.97 142.24 506.55 138.88 C 506.76 139.59 507.18 141.02 507.39 141.74 C 502.37 147.31 495.97 153.12 488.05 153.25 C 483.83 153.24 481.76 149.07 480.92 145.53 C 477.04 149.03 472.56 153.38 466.89 152.70 C 463.19 152.25 462.40 148.07 461.73 145.09 C 457.25 149.16 451.24 151.70 448.12 157.11 C 444.60 161.95 440.81 167.38 435.00 169.59 C 434.34 169.25 433.01 168.59 432.34 168.26 C 434.28 160.78 441.12 156.35 446.48 151.43 C 448.48 148.74 449.73 145.58 451.33 142.66 C 447.60 145.88 443.88 149.61 439.01 150.97 C 435.57 151.80 433.98 148.19 432.99 145.63 C 429.63 148.42 426.23 151.28 422.26 153.19 C 420.44 154.14 417.38 154.18 416.63 151.84 C 415.90 148.60 417.58 145.55 418.70 142.63 C 414.51 145.79 410.77 149.71 405.97 151.94 C 402.72 152.25 401.20 148.48 399.58 146.31 C 395.39 149.78 390.57 153.32 384.87 153.26 C 381.02 153.19 378.27 149.62 377.85 146.03 C 376.36 135.14 387.29 125.02 397.89 125.83 C 400.94 125.83 402.46 129.21 400.92 131.71 C 397.71 137.78 390.57 139.97 384.59 142.31 C 384.70 144.44 385.51 146.79 388.01 146.90 C 392.14 146.99 396.09 144.67 399.00 141.91 C 403.38 133.20 412.92 128.63 421.97 126.37 C 424.99 125.32 428.24 126.36 429.84 129.17 C 429.28 129.62 428.15 130.52 427.59 130.97 C 428.30 132.09 429.49 133.27 428.87 134.73 C 426.95 138.32 423.68 141.12 422.59 145.17 C 426.46 146.94 429.79 143.73 432.75 141.68 C 434.82 134.41 441.69 130.00 448.29 127.26 C 450.98 126.28 454.56 124.93 457.05 127.06 C 457.23 128.25 456.85 129.17 455.89 129.83 C 450.99 133.47 444.94 135.28 440.20 139.15 C 438.37 140.56 437.85 142.99 438.82 145.06 C 447.26 143.88 451.11 135.57 456.99 130.55 C 459.20 129.77 460.35 132.22 460.62 134.01 C 459.08 138.64 456.27 142.71 454.04 147.03 C 456.54 145.18 459.22 143.57 461.58 141.54 C 462.69 138.83 462.81 135.79 463.93 133.07 C 466.42 125.87 471.70 120.19 476.83 114.76 Z" />
<path fill="#125f89" d=" M 234.26 116.42 C 247.75 116.53 261.19 118.01 274.67 118.56 C 288.30 119.17 301.90 120.67 315.56 120.52 C 321.64 121.16 327.75 121.44 333.82 122.19 C 336.87 122.96 340.15 122.41 343.08 123.70 C 340.29 128.44 337.77 133.33 335.18 138.18 C 333.06 142.48 328.30 144.26 324.53 146.77 C 318.91 150.02 313.72 154.54 307.06 155.43 C 302.49 155.70 297.77 155.98 293.38 154.41 C 287.49 152.43 281.29 151.28 275.66 148.57 C 261.66 138.13 248.08 127.11 234.26 116.42 Z" />
<path fill="#ffffff" d=" M 470.43 131.93 C 472.87 126.68 475.65 121.32 480.24 117.60 C 478.15 123.07 474.61 127.88 470.43 131.93 Z" />
<path fill="#ffffff" d=" M 385.30 138.49 C 387.37 134.44 390.77 130.97 395.30 129.82 C 393.87 134.34 389.32 136.68 385.30 138.49 Z" />
<path fill="#ffffff" d=" M 488.67 138.47 C 490.68 134.39 494.13 131.06 498.55 129.76 C 497.27 134.34 492.64 136.62 488.67 138.47 Z" />
<path fill="#ffffff" d=" M 406.18 141.21 C 410.53 136.79 416.77 135.14 422.45 133.12 C 417.02 138.30 412.01 144.54 404.77 147.20 C 404.47 145.10 404.50 142.76 406.18 141.21 Z" />
<path fill="#fa3757" d=" M 275.66 148.57 C 281.29 151.28 287.49 152.43 293.38 154.41 C 297.77 155.98 302.49 155.70 307.06 155.43 C 303.49 156.97 299.61 157.50 295.88 158.50 C 286.57 160.70 277.29 163.03 268.01 165.33 C 270.67 159.79 273.15 154.18 275.66 148.57 Z" />
</svg>
